<svg id="Layer_1" data-name="Layer 1" xmlns="http://www.w3.org/2000/svg" viewBox="0 0 49.72 49.75"><defs><style>.cls-1{fill:none;stroke:#769e2d;stroke-linecap:round;stroke-linejoin:round;stroke-width:2px;}</style></defs><title>rocket</title><path class="cls-1" d="M236.28,57.6c5.46-.29,16.13-7.81,20.91-14.65a41.38,41.38,0,0,0,5.94-14.1A37.29,37.29,0,0,0,249,34.79c-7.42,5.45-14.78,16.09-14.66,20.91Z" transform="translate(-214.4 -27.85)"/><circle class="cls-1" cx="34.72" cy="15.03" r="2.9"/><line class="cls-1" x1="28.53" y1="21.22" x2="18.46" y2="31.3"/><path class="cls-1" d="M246.26,53.62a39,39,0,0,1-6.54,3.9l-3,3,2.82,5.85,4.23-4.23A9.12,9.12,0,0,0,246.26,53.62Z" transform="translate(-214.4 -27.85)"/><path class="cls-1" d="M238.33,45.73a9.14,9.14,0,0,0-8.42,2.46l-4.23,4.23,5.85,2.83,2.71-2.72A38,38,0,0,1,238.33,45.73Z" transform="translate(-214.4 -27.85)"/><line class="cls-1" x1="23.38" y1="40.28" x2="19.98" y2="43.68"/><line class="cls-1" x1="18.25" y1="45.41" x2="18.25" y2="45.41"/><line class="cls-1" x1="10.71" y1="25.14" x2="5.94" y2="29.9"/><line class="cls-1" x1="3.82" y1="32.03" x2="3.83" y2="32.02"/><line class="cls-1" x1="15.91" y1="30.74" x2="2.81" y2="43.85"/><line class="cls-1" x1="1" y1="45.65" x2="1" y2="45.65"/><line class="cls-1" x1="19.01" y1="33.84" x2="4.1" y2="48.75"/></svg>