<svg id="Layer_1" data-name="Layer 1" xmlns="http://www.w3.org/2000/svg" viewBox="0 0 55.77 30.01"><defs><style>.cls-1{fill:none;stroke:#769e2d;stroke-linecap:round;stroke-linejoin:round;stroke-width:2px;}</style></defs><title>truck</title><path class="cls-1" d="M41.07,4.93h10.5a3.2,3.2,0,0,1,3.2,3.2V19.34a0,0,0,0,1,0,0H41.07a0,0,0,0,1,0,0V4.93A0,0,0,0,1,41.07,4.93Z"/><path class="cls-1" d="M50.81,8.82h4a0,0,0,0,1,0,0v4.9a0,0,0,0,1,0,0h-4A1.84,1.84,0,0,1,49,11.88V10.67A1.84,1.84,0,0,1,50.81,8.82Z"/><path class="cls-1" d="M148.53,59.42a6.56,6.56,0,0,1,9.11,0H167V45.31a4.23,4.23,0,0,0-4.23-4.23H146V59.42Z" transform="translate(-125.89 -40.08)"/><path class="cls-1" d="M157.64,59.42a6.56,6.56,0,0,0-9.11,0h-3.3v5.77h4a3.85,3.85,0,0,1,7.7,0h12a3.85,3.85,0,0,1,7.7,0h4V59.42Z" transform="translate(-125.89 -40.08)"/><circle class="cls-1" cx="27.2" cy="25.16" r="3.86"/><circle class="cls-1" cx="46.92" cy="25.16" r="3.86"/><line class="cls-1" x1="19.69" y1="1" x2="10" y2="1"/><line class="cls-1" x1="16.69" y1="5.28" x2="4" y2="5.28"/><line class="cls-1" x1="1" y1="5.28" x2="1.01" y2="5.28"/><line class="cls-1" x1="7.22" y1="1" x2="7.23" y2="1"/><line class="cls-1" x1="16.69" y1="9.27" x2="6" y2="9.27"/></svg>