<svg id="Layer_1" data-name="Layer 1" xmlns="http://www.w3.org/2000/svg" viewBox="0 0 69.24 45.38"><defs><style>.cls-1{fill:none;stroke:#769e2d;stroke-linecap:round;stroke-linejoin:round;stroke-width:2px;}.cls-2{fill:#769e2d;}</style></defs><title>Globe</title><path class="cls-1" d="M53.32,54.1a20.82,20.82,0,0,1-.18-2.75A21.69,21.69,0,0,1,96.47,50" transform="translate(-37.46 -28.66)"/><path class="cls-1" d="M77.85,72.83A21.7,21.7,0,0,1,53.89,57" transform="translate(-37.46 -28.66)"/><path class="cls-1" d="M58.77,54.86c-1.11-1.18-1.77-2.87,1-5.57,0,0-4.13-3.25-3.75-4.75a4.31,4.31,0,0,0-.55-3" transform="translate(-37.46 -28.66)"/><path class="cls-1" d="M67.71,63.63c-1.84.41-4.21,1.57-3.52,4.5.37,1.56-1.34.07-2.61-1.17a3.78,3.78,0,0,1-.56-4c.37-.87-1.25-3.83-1.25-4.83" transform="translate(-37.46 -28.66)"/><path class="cls-1" d="M70.56,31.89c-.53,3.48-6.54,6.3-6.92,7.3s1.23,2.5,1,3.35-2.37,1.37-3.25-1.88-1.87,1.25-1.87,1.25-3.38,1.25-1,4.13S65.63,47,67.25,50" transform="translate(-37.46 -28.66)"/><path class="cls-1" d="M74.81,30.72" transform="translate(-37.46 -28.66)"/><path class="cls-1" d="M87.27,44.54" transform="translate(-37.46 -28.66)"/><path class="cls-1" d="M103,58.79H78.34l-6.1-1A2.22,2.22,0,0,1,70,55.56h0a2.22,2.22,0,0,1,2.21-2.2l6.1-1H103c1.21,0,2.72,2,2.72,3.23h0C105.7,56.77,104.19,58.79,103,58.79Z" transform="translate(-37.46 -28.66)"/><polyline class="cls-1" points="46.14 23.46 42.92 10.82 45.14 10.19 56.96 23.46"/><polyline class="cls-1" points="39.28 23.46 35.74 19.9 33.11 19.9 35.41 24.38"/><polyline class="cls-1" points="46.14 30.33 42.92 42.97 45.14 43.6 56.96 30.33"/><polyline class="cls-1" points="39.28 30.33 35.74 33.9 33.11 33.9 35.41 29.41"/><path class="cls-1" d="M99.48,54.52" transform="translate(-37.46 -28.66)"/><path class="cls-2" d="M99.21,54.1a2.66,2.66,0,0,1,0,2.9s1.29.09,1.29-1.44A1.28,1.28,0,0,0,99.21,54.1Z" transform="translate(-37.46 -28.66)"/><path class="cls-1" d="M67.71,55.47c-16.62-.5-29.25-3-29.25-5.92,0-1.88,5.1-3.56,13.09-4.66" transform="translate(-37.46 -28.66)"/></svg>